# xmcd
#
# Track frame offsets: 
#        150
#        15611
#        28736
#        41567
#        55002
#        69995
#        84104
#        96648
#        110574
#        123025
#        136229
#        149406
#        163358
#        176314
#        190563
#        203325
#        216821
#        230227
#        244835
#        258264
#        273297
#        287729
#        298414
#        311162
#        326561
#        338957
#
# Disc length: 4716 seconds
#
# Revision: 0
# Processed by: cddbd v1.5.2PL0 Copyright (c) Steve Scherf et al.
# Submitted via: ExactAudioCopyFreeDBPlugin 1.0
#
DISCID=84126a1a
DTITLE=Various Artist - VA - Really the Blues - Disc 14
DYEAR=1900
DGENRE=30s
TTITLE0=Hoagy Carmichael - Washboard Blues
TTITLE1=Peetie Wheatstraw with Ike Rodgers - Throw Me in the Alley
TTITLE2=Gid Tanner and his Skillet Lickers - Ida Red
TTITLE3=Mezz Mezzrow - Sendin' the Vipers
TTITLE4=Guy Lombardo - St. Louis Blues
TTITLE5=Wilf Carter - Hobo's Blues
TTITLE6=Johnnie Strauss with Henry Brown - Hard Working Woman
TTITLE7=Lee Green - 44 Blues
TTITLE8=Charlie Patton - Hang It on the Wall
TTITLE9=Larry Hensley - Matchbox
TTITLE10=Bob Campbell - Starvation Farm Blues
TTITLE11=Robert Cooper - West Dallas Drag
TTITLE12=Charlie Patton with Bertha Lee Patton - Oh Death
TTITLE13=Casa Loma Orchestra - Old Man River
TTITLE14=Tiny Bradshaw - Old Man River
TTITLE15=Alice Moore - Black Evil Blues
TTITLE16=Johnny Green - Repeal the Blues
TTITLE17=Memphis Minnie - Moaning the Blues
TTITLE18=Goebel Reeves - Miss Jackson, Tennessee
TTITLE19=Reverend Gary Davis - I'm Throwin' Up My Hands
TTITLE20=Sleepy John Estes - Down South Blues
TTITLE21=Cleo Brown - Pelican Stomp
TTITLE22=Louie Lasky - How You Want Your Rollin' Done?
TTITLE23=Lucille Bogan - Shave 'em Dry
TTITLE24=Hammie Nixon - Stop That Thing
TTITLE25=Shelton Brothers - I'm Sittin' on Top of the World
EXTD=
EXTT0=
EXTT1=
EXTT2=
EXTT3=
EXTT4=
EXTT5=
EXTT6=
EXTT7=
EXTT8=
EXTT9=
EXTT10=
EXTT11=
EXTT12=
EXTT13=
EXTT14=
EXTT15=
EXTT16=
EXTT17=
EXTT18=
EXTT19=
EXTT20=
EXTT21=
EXTT22=
EXTT23=
EXTT24=
EXTT25=
PLAYORDER=
